<svg width="243" height="47" viewBox="0 0 243 47" fill="none" xmlns="http://www.w3.org/2000/svg">
<g clip-path="url(#clip0_1_890)">
<path d="M155.958 26.74C155.839 26.74 155.839 26.3758 155.995 26.3386C157.608 26.1751 158.292 26.0562 158.775 25.7738C159.258 25.4914 159.622 24.5698 159.622 16.64V10.7688C159.622 2.83898 159.258 1.91743 158.775 1.63502C158.292 1.35261 157.608 1.23369 155.995 1.07019C155.832 1.03303 155.832 0.668871 155.958 0.668871H165.739C165.858 0.668871 165.902 1.03303 165.701 1.07019C164.133 1.23369 163.45 1.35261 162.967 1.63502C162.446 1.91743 162.119 2.83898 162.119 10.7688V16.64C162.119 24.5698 162.439 25.4914 162.967 25.7738C163.45 26.0562 164.133 26.1751 165.701 26.3386C165.902 26.3758 165.865 26.74 165.739 26.74H155.958ZM179.458 26.6582C177.043 26.6582 174.389 25.9745 171.974 24.005C169.559 22.0356 166.46 18.773 162.119 13.3031L164.691 10.7688C170.406 5.25435 172.494 2.92073 173.022 2.03634C173.505 1.35261 172.821 1.1891 170.807 1.07019C170.644 1.07019 170.688 0.668871 170.807 0.668871H178.611C178.73 0.668871 178.811 1.03303 178.611 1.07019C177.407 1.1891 176.515 1.30801 175.712 1.71677C175.066 2.03634 174.1 2.88358 165.932 10.8506L164.483 12.218C173.854 23.0835 178.284 26.0191 180.417 26.0191C180.781 26.0191 181.264 26.0191 181.583 25.9819C181.747 25.9819 181.747 26.4278 181.621 26.465C180.818 26.6285 180.417 26.6656 179.45 26.6656L179.458 26.6582Z" fill="#2B3A5C"/>
<path d="M211.965 26.74C211.846 26.74 211.846 26.3758 212.047 26.3386C213.615 26.1751 214.618 26.0562 215.101 25.7738C215.621 25.4914 215.949 24.5698 215.949 16.64V10.7688C215.949 2.83898 215.629 1.91743 215.101 1.63502C214.618 1.35261 213.615 1.23369 212.047 1.07019C211.846 1.03303 211.846 0.668871 211.965 0.668871H222.429C222.548 0.668871 222.548 1.03303 222.392 1.07019C220.824 1.23369 219.776 1.35261 219.293 1.63502C218.81 1.91743 218.446 2.83898 218.446 10.7688V16.64C218.446 24.5698 218.81 25.4914 219.293 25.7738C219.776 26.0562 220.824 26.1751 222.392 26.3386C222.555 26.3758 222.555 26.74 222.429 26.74H211.965Z" fill="#2B3A5C"/>
<path d="M234.253 26.9406C230.188 26.9406 228.1 24.7259 228.018 24.607C227.981 24.4881 227.773 21.0694 228.018 19.0108C227.981 18.8101 228.464 18.8101 228.464 19.0479C228.546 20.5789 229.11 22.1842 229.668 23.0314C230.835 24.8002 232.403 25.8853 234.781 25.8853C237.917 25.8853 239.849 23.6706 239.849 20.6978C239.849 14.7003 229.185 13.697 229.185 7.0603C229.185 2.9133 232.403 0.341867 236.104 0.341867C239.158 0.341867 239.686 1.42692 241.135 1.06276C241.299 1.0256 241.373 1.09992 241.373 1.18167C241.373 2.5863 241.455 4.48143 241.373 6.61438C241.336 6.77789 240.927 6.77789 240.89 6.57723C240.808 5.29151 240.325 3.72338 239.522 2.87614C238.594 1.91 237.308 1.30801 235.859 1.30801C233.324 1.30801 231.392 3.19571 231.392 5.69283C231.392 10.7242 242.495 12.8126 242.495 19.3749C242.495 24.4063 238.274 26.9406 234.246 26.9406" fill="#2B3A5C"/>
<path d="M194.835 8.6287e-07C197.488 8.6287e-07 199.479 0.958715 201.687 2.26673C202.831 2.94303 203.634 3.70108 204.34 4.69696C204.503 4.93478 204.466 5.23949 204.414 5.41042C204.273 5.8489 203.649 5.60365 203.5 5.4996C202.987 5.14287 202.846 5.09828 202.601 4.94964C201.144 4.07268 199.636 3.33692 197.963 3.05451C197.844 3.03221 196.878 2.80926 196.797 3.05451C196.722 3.2849 197.168 3.4261 197.517 3.49299C197.978 3.58217 199.792 3.76797 202.103 5.20233C203.277 5.93065 204.199 6.71843 205.165 7.71431C205.306 7.86294 205.544 8.0859 205.745 8.35345C206.161 8.89598 205.886 9.91415 204.875 9.18582C204.377 8.82909 203.678 8.27913 203.24 7.95213C201.91 6.94882 200.342 6.22793 198.721 5.77458C198.09 5.59622 197.83 5.51447 197.183 5.38812C196.618 5.27665 196.67 5.81174 196.915 5.88606C197.644 6.10159 197.621 6.12388 197.844 6.1759C199.792 6.62925 201.107 7.11976 202.757 8.2494C203.649 8.85882 206.711 10.6945 206.681 12.0025C206.651 13.199 205.105 12.1363 204.704 11.8093C204.191 11.3931 203.619 10.9695 203.136 10.6796C201.048 9.45337 199.056 8.66559 198.186 8.4129C197.882 8.32372 197.22 8.1082 197.019 8.09333C196.878 8.0859 196.707 8.16022 196.678 8.25683C196.633 8.39804 196.715 8.57641 196.886 8.62843C197.629 8.85139 198.677 9.11893 199.539 9.45337C200.156 9.69862 201.33 10.1966 202.021 10.583C202.794 11.0215 206.005 12.8274 204.414 13.7787C203.909 14.0834 203.128 13.645 202.43 13.1545C196.997 10.2412 196.447 11.0438 194.835 10.8803C194.76 10.8803 194.686 10.8803 194.612 10.8654C193.593 10.7985 193.46 10.7094 192.449 10.5979C192.159 10.5682 191.453 10.3749 191.163 10.5459C190.546 10.91 190.933 11.5863 191.275 11.9728C192.27 13.0727 193.207 13.3105 194.835 13.4889C196.462 13.6673 197.399 13.9051 198.394 15.005C198.744 15.384 199.13 16.0603 198.506 16.4319C198.216 16.6029 197.51 16.4096 197.22 16.3799C196.202 16.2684 196.076 16.1792 195.057 16.1123C194.983 16.1123 194.909 16.1049 194.835 16.0975C193.222 15.934 192.664 16.7292 187.239 13.8233C186.541 13.3328 185.76 12.8943 185.255 13.199C183.664 14.1578 186.875 15.9637 187.648 16.3948C188.339 16.7812 189.513 17.2792 190.13 17.5244C190.992 17.8663 192.04 18.1338 192.783 18.3568C192.947 18.4088 193.036 18.5872 192.991 18.7284C192.962 18.825 192.791 18.8993 192.65 18.8919C192.449 18.877 191.787 18.6541 191.483 18.5723C190.613 18.327 188.621 17.5318 186.533 16.3056C186.05 16.0232 185.478 15.5921 184.965 15.1759C184.564 14.8489 183.01 13.7862 182.988 14.9827C182.958 16.2907 186.02 18.1264 186.912 18.7358C188.562 19.858 189.877 20.356 191.825 20.8093C192.048 20.8613 192.025 20.8762 192.754 21.0991C192.999 21.1735 193.051 21.716 192.486 21.5971C191.839 21.4633 191.579 21.389 190.948 21.2106C189.335 20.7573 187.759 20.0364 186.429 19.0331C185.991 18.7061 185.299 18.1561 184.794 17.7994C183.776 17.0711 183.501 18.0892 183.924 18.6318C184.125 18.8993 184.363 19.1223 184.504 19.2709C185.463 20.2593 186.384 21.0546 187.566 21.7829C189.885 23.2172 191.691 23.403 192.152 23.4922C192.501 23.5591 192.947 23.7003 192.872 23.9307C192.791 24.1834 191.817 23.953 191.706 23.9307C190.041 23.6483 188.532 22.9125 187.068 22.0356C186.823 21.8869 186.682 21.8423 186.169 21.4856C186.02 21.3816 185.396 21.1363 185.255 21.5748C185.203 21.7457 185.166 22.0504 185.329 22.2882C186.035 23.2841 186.838 24.0422 187.982 24.7185C190.19 26.0265 192.181 26.9852 194.835 26.9852C202.259 26.9852 208.286 20.9431 208.286 13.4889C208.286 10.1222 207.067 7.03057 205.039 4.66723C202.564 1.81338 198.922 -0.00743103 194.842 -0.00743103" fill="#2B3A5C"/>
<path d="M23.7746 10.6722C23.7746 5.30637 23.7746 4.34023 23.8415 3.24031C23.9084 2.03634 24.1834 1.44922 25.1124 1.27829C25.5286 1.2114 25.7292 1.17424 25.9745 1.17424C26.1157 1.17424 26.2494 1.10735 26.2494 0.966146C26.2494 0.758053 26.0785 0.691166 25.6995 0.691166C24.6665 0.691166 22.4963 0.795212 22.3254 0.795212C22.1545 0.795212 19.9844 0.691166 18.4385 0.691166C18.0595 0.691166 17.8886 0.758053 17.8886 0.966146C17.8886 1.10735 18.0298 1.17424 18.1635 1.17424C18.4757 1.17424 19.0554 1.2114 19.3304 1.27829C20.4674 1.51611 20.7424 2.06607 20.8093 3.24031C20.8762 4.34023 20.8762 5.30637 20.8762 10.6722V11.3931C20.8762 11.564 20.7721 11.6012 20.6681 11.6012H6.08672C5.98268 11.6012 5.87863 11.564 5.87863 11.3931V10.6722C5.87863 5.30637 5.87863 4.34023 5.94552 3.24031C6.0124 2.03634 6.28738 1.44922 7.21637 1.27829C7.63256 1.2114 7.83322 1.17424 8.07847 1.17424C8.21968 1.17424 8.35345 1.10735 8.35345 0.966146C8.35345 0.758053 8.18252 0.691166 7.80349 0.691166C6.77046 0.691166 4.60034 0.795212 4.42941 0.795212C4.25848 0.795212 2.08836 0.691166 0.542529 0.691166C0.163503 0.691166 -0.00743103 0.758053 -0.00743103 0.966146C-0.00743103 1.10735 0.133775 1.17424 0.267549 1.17424C0.579689 1.17424 1.15938 1.2114 1.43436 1.27829C2.57144 1.51611 2.84642 2.06607 2.9133 3.24031C2.98019 4.34023 2.98019 5.30637 2.98019 10.6722V16.7292C2.98019 20.029 2.98019 22.749 2.80926 24.1982C2.66805 25.1941 2.49712 25.9522 1.81338 26.0934C1.50124 26.1603 1.09249 26.2346 0.78035 26.2346C0.572257 26.2346 0.50537 26.3386 0.50537 26.4427C0.50537 26.6508 0.676303 26.7177 1.05533 26.7177C2.08836 26.7177 4.25848 26.6136 4.42941 26.6136C4.60034 26.6136 6.77046 26.7177 8.65816 26.7177C9.03718 26.7177 9.20812 26.6136 9.20812 26.4427C9.20812 26.3386 9.14123 26.2346 8.93314 26.2346C8.621 26.2346 7.86294 26.1677 7.3873 26.0934C6.35427 25.9522 6.14618 25.2016 6.04213 24.1982C5.8712 22.7565 5.8712 20.0364 5.8712 16.7292V13.1173C5.8712 12.9464 5.97524 12.9092 6.07929 12.9092H20.6681C20.7721 12.9092 20.8762 12.9761 20.8762 13.1173V16.7292C20.8762 20.029 20.8762 22.749 20.7053 24.1982C20.5641 25.1941 20.3931 25.9522 19.7094 26.0934C19.3972 26.1603 18.9885 26.2346 18.6763 26.2346C18.4683 26.2346 18.4014 26.3386 18.4014 26.4427C18.4014 26.6508 18.5723 26.7177 18.9513 26.7177C19.9844 26.7177 22.1545 26.6136 22.3254 26.6136C22.4963 26.6136 24.6665 26.7177 26.5542 26.7177C26.9332 26.7177 27.1041 26.6136 27.1041 26.4427C27.1041 26.3386 27.0372 26.2346 26.8291 26.2346C26.517 26.2346 25.7589 26.1677 25.2833 26.0934C24.2503 25.9522 24.0422 25.2016 23.9381 24.1982C23.7672 22.7565 23.7672 20.0364 23.7672 16.7292V10.6722H23.7746Z" fill="#0082C9"/>
<path d="M36.6169 16.7292C36.6169 20.029 36.6169 22.749 36.446 24.1982C36.3048 25.1941 36.1339 25.9522 35.4501 26.0934C35.138 26.1603 34.7292 26.2346 34.4171 26.2346C34.209 26.2346 34.1421 26.3386 34.1421 26.4427C34.1421 26.6508 34.3131 26.7177 34.6921 26.7177C35.2049 26.7177 36.0001 26.6508 36.6913 26.6508C37.4122 26.6136 37.9993 26.6136 38.0662 26.6136C38.579 26.6136 39.4113 26.6508 40.7491 26.7177C42.0942 26.7548 43.9819 26.8217 46.5608 26.8217C47.906 26.8217 48.181 26.8217 48.4188 25.9299C48.5897 25.209 48.8647 22.8679 48.8647 22.593C48.8647 22.3551 48.8647 22.0802 48.6566 22.0802C48.4857 22.0802 48.4188 22.2214 48.3445 22.593C48.1066 24.005 47.6905 24.6887 46.7986 25.0678C45.9068 25.4468 44.3907 25.4468 43.4989 25.4468C40.1248 25.4468 39.612 25.0009 39.5079 22.6227C39.4708 21.9018 39.5079 17.9109 39.5079 16.7366V13.7118C39.5079 13.5706 39.5748 13.474 39.7458 13.474C40.3329 13.474 43.7367 13.5409 44.6657 13.645C46.0108 13.7862 46.3156 14.3659 46.4568 14.8489C46.598 15.2948 46.598 15.6367 46.598 15.986C46.598 16.1569 46.6649 16.2981 46.8358 16.2981C47.0736 16.2981 47.0736 15.9191 47.0736 15.6441C47.0736 15.4063 47.1405 14.128 47.2148 13.4443C47.3189 12.3072 47.4898 11.7275 47.4898 11.5194C47.4898 11.3113 47.4229 11.2445 47.3189 11.2445C47.1777 11.2445 47.0439 11.4154 46.8061 11.6904C46.4939 12.0322 46.0183 12.1066 45.1859 12.1734C44.3981 12.2403 40.162 12.2403 39.716 12.2403C39.5451 12.2403 39.5079 12.1363 39.5079 11.8985V2.37821C39.5079 2.14039 39.5748 2.03634 39.716 2.03634C40.0951 2.03634 43.8482 2.0735 44.4279 2.14039C46.2858 2.34848 46.6277 2.75723 46.873 3.30719C47.0439 3.72338 47.081 4.30307 47.081 4.54832C47.081 4.8233 47.1479 4.99423 47.356 4.99423C47.4972 4.99423 47.5641 4.78614 47.5938 4.61521C47.6607 4.19902 47.735 2.69035 47.7648 2.34105C47.8688 1.3749 48.0398 0.966146 48.0398 0.720894C48.0398 0.54996 48.0026 0.408754 47.8986 0.408754C47.7276 0.408754 47.5864 0.54996 47.4155 0.579688C47.1405 0.646575 46.5905 0.720894 45.9365 0.750621C45.1488 0.787781 38.2965 0.787781 38.0587 0.787781L36.6467 0.720894C35.8886 0.683734 34.9596 0.683734 34.1718 0.683734C33.7928 0.683734 33.6219 0.750621 33.6219 0.958714C33.6219 1.09992 33.7631 1.16681 33.8969 1.16681C34.209 1.16681 34.7887 1.20397 35.0637 1.27085C36.2008 1.50867 36.4757 2.05863 36.5426 3.23287C36.6095 4.33279 36.6095 5.29894 36.6095 10.6648V16.7218L36.6169 16.7292Z" fill="#0082C9"/>
<path d="M60.1537 15.3171C60.0497 15.3171 59.9828 15.2502 60.0497 15.0793L63.0745 5.78944C63.2454 5.27664 63.4163 5.27664 63.5873 5.78944L66.8573 15.0793C66.8945 15.2205 66.8945 15.3171 66.7161 15.3171H60.1463H60.1537ZM55.3379 22.92C54.721 24.6367 54.0299 25.9447 52.4469 26.1528C52.1719 26.19 51.6888 26.2197 51.451 26.2197C51.2801 26.2197 51.1389 26.2866 51.1389 26.4278C51.1389 26.6359 51.347 26.7028 51.7929 26.7028C53.413 26.7028 55.3007 26.5987 55.6797 26.5987C56.0588 26.5987 57.5377 26.7028 58.3627 26.7028C58.6748 26.7028 58.8755 26.6359 58.8755 26.4278C58.8755 26.2866 58.7714 26.2197 58.5336 26.2197H58.1917C57.6046 26.2197 56.8837 25.9076 56.8837 25.2238C56.8837 24.607 57.0546 23.7821 57.3668 22.92L59.4329 16.8332C59.4997 16.6623 59.6038 16.5583 59.7747 16.5583H67.1694C67.3404 16.5583 67.4073 16.6251 67.4816 16.7663L70.6847 25.2313C70.8928 25.7812 70.6847 26.0934 70.4766 26.1603C70.3354 26.1974 70.2388 26.2643 70.2388 26.3981C70.2388 26.6062 70.6179 26.6062 71.2719 26.6359C73.6426 26.7028 76.1546 26.7028 76.6748 26.7028C77.0539 26.7028 77.366 26.6359 77.366 26.4278C77.366 26.2569 77.2248 26.2197 77.0241 26.2197C76.6823 26.2197 76.162 26.1826 75.6492 26.0116C74.9283 25.8035 73.9325 25.2536 72.6913 22.1916C70.5956 16.9596 65.1926 2.75723 64.6723 1.44922C64.2561 0.379027 64.1224 0.208094 63.9143 0.208094C63.7062 0.208094 63.5724 0.416187 63.1562 1.55327L55.3453 22.92H55.3379Z" fill="#0082C9"/>
<path d="M109.1 2.17011L113.426 2.237C116.725 2.30389 117.55 3.0991 117.654 4.13213L117.691 4.51116C117.729 4.99423 117.795 5.09828 117.966 5.09828C118.108 5.09828 118.212 4.95707 118.212 4.65237C118.212 4.27334 118.316 1.90257 118.316 0.869532C118.316 0.661439 118.316 0.453346 118.145 0.453346C118.004 0.453346 117.691 0.557393 117.179 0.62428C116.629 0.728326 115.833 0.795213 114.741 0.795213H101.847C101.43 0.795213 100.13 0.728326 99.1266 0.62428C98.1976 0.557393 97.8557 0.208094 97.6105 0.208094C97.4693 0.208094 97.3355 0.654007 97.2686 0.8621C97.2017 1.13708 96.5106 4.09497 96.5106 4.43684C96.5106 4.64493 96.5774 4.74898 96.6815 4.74898C96.8227 4.74898 96.9193 4.68209 97.0234 4.40711C97.1274 4.16929 97.2314 3.92404 97.6105 3.34435C98.1604 2.51941 98.9854 2.27416 101.118 2.24443L106.209 2.17755V16.7292C106.209 20.029 106.209 22.749 106.038 24.1982C105.897 25.1941 105.726 25.9522 105.042 26.0934C104.73 26.1603 104.321 26.2346 104.009 26.2346C103.801 26.2346 103.734 26.3386 103.734 26.4427C103.734 26.6508 103.905 26.7177 104.284 26.7177C105.317 26.7177 107.487 26.6136 107.658 26.6136C107.829 26.6136 109.992 26.7177 111.887 26.7177C112.266 26.7177 112.437 26.6136 112.437 26.4427C112.437 26.3386 112.37 26.2346 112.162 26.2346C111.85 26.2346 111.092 26.1677 110.616 26.0934C109.591 25.9522 109.383 25.2016 109.279 24.1982C109.108 22.7565 109.108 20.0364 109.108 16.7292V2.17011H109.1Z" fill="#0082C9"/>
<path d="M146.921 10.6722C146.921 5.30637 146.921 4.34023 146.988 3.24031C147.055 2.03634 147.33 1.44922 148.259 1.27829C148.675 1.2114 148.876 1.17424 149.121 1.17424C149.262 1.17424 149.396 1.10735 149.396 0.966146C149.396 0.758053 149.225 0.691166 148.846 0.691166C147.813 0.691166 145.643 0.795212 145.472 0.795212C145.301 0.795212 143.131 0.691166 141.585 0.691166C141.206 0.691166 141.035 0.758053 141.035 0.966146C141.035 1.10735 141.176 1.17424 141.31 1.17424C141.622 1.17424 142.202 1.2114 142.477 1.27829C143.614 1.51611 143.889 2.06607 143.956 3.24031C144.023 4.34023 144.023 5.30637 144.023 10.6722V11.3931C144.023 11.564 143.919 11.6012 143.815 11.6012H129.226C129.122 11.6012 129.018 11.564 129.018 11.3931V10.6722C129.018 5.30637 129.018 4.34023 129.085 3.24031C129.151 2.03634 129.426 1.44922 130.355 1.27829C130.772 1.2114 130.972 1.17424 131.217 1.17424C131.359 1.17424 131.492 1.10735 131.492 0.966146C131.492 0.758053 131.322 0.691166 130.943 0.691166C129.909 0.691166 127.739 0.795212 127.568 0.795212C127.397 0.795212 125.227 0.691166 123.682 0.691166C123.303 0.691166 123.132 0.758053 123.132 0.966146C123.132 1.10735 123.273 1.17424 123.407 1.17424C123.719 1.17424 124.298 1.2114 124.573 1.27829C125.71 1.51611 125.985 2.06607 126.052 3.24031C126.119 4.34023 126.119 5.30637 126.119 10.6722V16.7292C126.119 20.029 126.119 22.749 125.948 24.1982C125.807 25.1941 125.636 25.9522 124.952 26.0934C124.64 26.1603 124.232 26.2346 123.919 26.2346C123.711 26.2346 123.644 26.3386 123.644 26.4427C123.644 26.6508 123.815 26.7177 124.194 26.7177C125.227 26.7177 127.39 26.6136 127.568 26.6136C127.747 26.6136 129.909 26.7177 131.797 26.7177C132.176 26.7177 132.347 26.6136 132.347 26.4427C132.347 26.3386 132.28 26.2346 132.072 26.2346C131.76 26.2346 131.002 26.1677 130.526 26.0934C129.493 25.9522 129.285 25.2016 129.181 24.1982C129.01 22.7565 129.01 20.0364 129.01 16.7292V13.1173C129.01 12.9464 129.114 12.9092 129.218 12.9092H143.807C143.911 12.9092 144.015 12.9761 144.015 13.1173V16.7292C144.015 20.029 144.015 22.749 143.844 24.1982C143.703 25.1941 143.532 25.9522 142.848 26.0934C142.536 26.1603 142.128 26.2346 141.815 26.2346C141.607 26.2346 141.54 26.3386 141.54 26.4427C141.54 26.6508 141.711 26.7177 142.09 26.7177C143.123 26.7177 145.294 26.6136 145.464 26.6136C145.635 26.6136 147.805 26.7177 149.693 26.7177C150.072 26.7177 150.243 26.6136 150.243 26.4427C150.243 26.3386 150.176 26.2346 149.968 26.2346C149.656 26.2346 148.898 26.1677 148.422 26.0934C147.389 25.9522 147.181 25.2016 147.077 24.1982C146.906 22.7565 146.906 20.0364 146.906 16.7292V10.6722H146.921Z" fill="#0082C9"/>
<path d="M85.764 10.6722C85.764 5.30637 85.764 4.34023 85.8309 3.24031C85.8978 2.03634 86.1728 1.44922 87.1761 1.27829C87.5923 1.2114 88.0679 1.17424 88.3132 1.17424C88.4544 1.17424 88.5882 1.10735 88.5882 0.966146C88.5882 0.758053 88.4172 0.691166 88.0382 0.691166C87.0052 0.691166 84.4932 0.795212 84.3222 0.795212C84.1513 0.795212 81.9812 0.691166 80.4354 0.691166C80.0563 0.691166 79.8854 0.758053 79.8854 0.966146C79.8854 1.10735 80.0266 1.17424 80.1604 1.17424C80.4725 1.17424 81.0522 1.2114 81.3272 1.27829C82.4643 1.51611 82.7393 2.06607 82.8061 3.24031C82.873 4.34023 82.873 5.30637 82.873 10.6722V16.7292C82.873 20.029 82.873 22.749 82.7021 24.1982C82.5609 25.1941 82.39 25.9522 81.7062 26.0934C81.3941 26.1603 80.9853 26.2346 80.6732 26.2346C80.4651 26.2346 80.3982 26.3386 80.3982 26.4427C80.3982 26.6508 80.5691 26.7177 80.9482 26.7177C81.461 26.7177 82.219 26.6805 82.9102 26.6508C83.6014 26.6508 84.181 26.6136 84.3222 26.6136C85.3181 26.6136 86.3883 26.6508 87.8301 26.7177C89.2719 26.7548 91.063 26.8217 93.5378 26.8217C95.3586 26.8217 95.4627 26.6805 95.7079 25.8927C95.9829 24.8968 96.2207 22.8308 96.2207 22.4517C96.2207 22.0727 96.1836 21.9389 96.0126 21.9389C95.8045 21.9389 95.7376 22.1099 95.7005 22.3849C95.5964 23.0389 95.2546 23.901 94.8087 24.4509C93.9837 25.4468 92.4676 25.484 90.6468 25.484C87.9639 25.484 87.0721 25.2461 86.5147 24.6962C85.8978 24.0793 85.7566 21.8721 85.7566 16.8184V10.6945L85.764 10.6722Z" fill="#0082C9"/>
<path d="M61.1422 42.7705C61.1422 42.83 61.1422 42.8746 61.1347 42.9266C61.1347 42.9712 61.1199 43.0158 61.1125 43.0455C61.105 43.0827 61.0902 43.1124 61.0679 43.1421C61.053 43.1719 61.0158 43.209 60.9712 43.2611C60.9192 43.3056 60.8152 43.3874 60.6517 43.4914C60.4882 43.6029 60.2875 43.707 60.0348 43.811C59.7896 43.9151 59.5072 44.0042 59.1876 44.0786C58.868 44.1529 58.5113 44.19 58.1323 44.19C57.508 44.19 56.9506 44.086 56.4452 43.8705C55.9399 43.6549 55.5162 43.3354 55.1595 42.9192C54.8028 42.503 54.5352 41.9902 54.342 41.3808C54.1488 40.7714 54.0522 40.0728 54.0522 39.2924C54.0522 38.5121 54.1562 37.7689 54.3569 37.1372C54.5575 36.498 54.8474 35.9555 55.2115 35.517C55.5831 35.0711 56.0216 34.7367 56.5418 34.4988C57.0621 34.261 57.6269 34.1421 58.2512 34.1421C58.5484 34.1421 58.8309 34.1718 59.1133 34.2239C59.3883 34.2759 59.6484 34.3502 59.8788 34.432C60.1091 34.5211 60.3247 34.6103 60.5105 34.7292C60.6963 34.8407 60.8226 34.9299 60.8895 34.9968C60.9564 35.0637 61.001 35.1157 61.0158 35.1454C61.0307 35.1752 61.0456 35.2123 61.0604 35.2495C61.0679 35.2866 61.0753 35.3312 61.0827 35.3832C61.0827 35.4278 61.0902 35.4873 61.0902 35.5467C61.0902 35.6136 61.0902 35.6805 61.0827 35.7325C61.0753 35.7846 61.0604 35.8366 61.0456 35.8737C61.0307 35.9109 61.0084 35.9406 60.9787 35.9629C60.9564 35.9852 60.9192 35.9927 60.8895 35.9927C60.8152 35.9927 60.7186 35.9406 60.5848 35.8366C60.4584 35.7325 60.2801 35.6211 60.072 35.4947C59.8639 35.3684 59.6038 35.2495 59.2991 35.1529C58.9944 35.0488 58.6302 34.9968 58.2066 34.9968C57.7458 34.9968 57.3222 35.0934 56.9357 35.2718C56.5493 35.4576 56.2148 35.7325 55.9399 36.0893C55.6649 36.446 55.4419 36.8919 55.2933 37.4196C55.1372 37.9472 55.0629 38.5567 55.0629 39.2404C55.0629 39.9241 55.1298 40.4815 55.2784 40.9869C55.4196 41.4923 55.6277 41.9233 55.8953 42.2726C56.1628 42.6219 56.4972 42.882 56.8986 43.0678C57.2925 43.2536 57.7458 43.3428 58.2512 43.3428C58.6674 43.3428 59.0241 43.2908 59.3362 43.1867C59.6409 43.0827 59.9085 42.9712 60.124 42.8449C60.3395 42.7185 60.5253 42.5996 60.6591 42.503C60.8003 42.3989 60.9044 42.3469 60.9787 42.3469C61.0084 42.3469 61.0381 42.3469 61.0604 42.3618C61.0827 42.3767 61.0976 42.399 61.1125 42.4287C61.1273 42.4584 61.1347 42.503 61.1422 42.5625C61.1496 42.6145 61.1496 42.6814 61.1496 42.7631" fill="#898989"/>
<path d="M66.4783 40.6896H65.2223C64.8581 40.6896 64.5386 40.7268 64.2636 40.7862C63.9886 40.8531 63.7582 40.9497 63.5798 41.0761C63.4015 41.2024 63.2603 41.3511 63.1711 41.5368C63.0819 41.7152 63.0373 41.9159 63.0373 42.1463C63.0373 42.5476 63.1637 42.8597 63.4163 43.0975C63.669 43.3354 64.0183 43.4543 64.4717 43.4543C64.8284 43.4543 65.1628 43.3577 65.475 43.1793C65.7871 42.9935 66.1141 42.7111 66.4634 42.3246V40.697L66.4783 40.6896ZM67.3775 43.9596C67.3775 44.0117 67.3627 44.0488 67.3255 44.0786C67.2884 44.1083 67.2512 44.1306 67.1917 44.138C67.1397 44.1529 67.0654 44.1529 66.9762 44.1529C66.887 44.1529 66.8201 44.1529 66.7533 44.138C66.6938 44.1231 66.6492 44.1009 66.6121 44.0786C66.5749 44.0488 66.56 44.0117 66.56 43.9596V43.1867C66.2479 43.5212 65.906 43.7813 65.5344 43.9596C65.1628 44.138 64.7764 44.2272 64.3751 44.2272C64.0109 44.2272 63.6913 44.1826 63.4015 44.086C63.1116 43.9894 62.8738 43.8556 62.6732 43.6772C62.4725 43.5063 62.3239 43.2908 62.2124 43.0381C62.1083 42.7854 62.0563 42.5104 62.0563 42.1983C62.0563 41.8193 62.1381 41.4848 62.2941 41.2024C62.4502 40.92 62.6732 40.6822 62.963 40.4964C63.2528 40.3106 63.6021 40.1694 64.0035 40.0728C64.4122 39.9762 64.8656 39.9316 65.3635 39.9316H66.456V39.3444C66.456 39.0472 66.4263 38.787 66.3668 38.5641C66.3073 38.3411 66.2033 38.1479 66.0695 37.9993C65.9283 37.8506 65.7574 37.7317 65.5344 37.6574C65.3189 37.5831 65.0514 37.5459 64.7318 37.5459C64.4122 37.5459 64.1521 37.5831 63.9068 37.6574C63.6616 37.7317 63.4535 37.8135 63.2677 37.9027C63.0819 37.9918 62.9333 38.0736 62.8144 38.1479C62.6954 38.2222 62.6137 38.2594 62.5617 38.2594C62.5319 38.2594 62.5022 38.2594 62.4799 38.2445C62.4576 38.2371 62.4353 38.2148 62.413 38.1851C62.3982 38.1628 62.3833 38.1256 62.3759 38.081C62.3684 38.0364 62.3684 37.9844 62.3684 37.9249C62.3684 37.8209 62.3759 37.7317 62.3907 37.6723C62.4056 37.6054 62.4428 37.5459 62.5097 37.479C62.5765 37.4121 62.688 37.3378 62.8441 37.2561C63.0076 37.1669 63.1934 37.0851 63.4089 37.0108C63.617 36.9365 63.8474 36.8771 64.0852 36.8325C64.3305 36.7879 64.5757 36.7656 64.8135 36.7656C65.2892 36.7656 65.6831 36.825 66.0101 36.9365C66.3371 37.048 66.5972 37.2115 66.7979 37.427C66.9985 37.6425 67.1397 37.9027 67.2289 38.2148C67.3181 38.5269 67.3552 38.8837 67.3552 39.2776V43.9448L67.3775 43.9596Z" fill="#898989"/>
<path d="M73.4122 37.4047C73.4122 37.479 73.4122 37.5459 73.4048 37.598C73.4048 37.65 73.3899 37.6946 73.3825 37.7243C73.3677 37.7615 73.3528 37.7837 73.3379 37.7986C73.3231 37.8135 73.2933 37.8283 73.2636 37.8283C73.219 37.8283 73.167 37.8209 73.1075 37.7912C73.0481 37.7689 72.9738 37.7466 72.892 37.7169C72.8103 37.6871 72.7211 37.6648 72.6245 37.6425C72.5278 37.6202 72.4238 37.6054 72.3049 37.6054C72.1711 37.6054 72.0373 37.6351 71.9036 37.6946C71.7698 37.754 71.636 37.8506 71.4874 37.977C71.3462 38.1033 71.1901 38.2817 71.034 38.4972C70.8705 38.7127 70.6922 38.9729 70.5064 39.285V43.9448C70.5064 43.9448 70.4989 44.0042 70.4841 44.0265C70.4692 44.0488 70.4469 44.0711 70.4098 44.086C70.38 44.1009 70.328 44.1157 70.276 44.1232C70.2165 44.1306 70.1422 44.138 70.053 44.138C69.9638 44.138 69.897 44.138 69.8375 44.1232C69.778 44.1157 69.7335 44.1009 69.6963 44.086C69.6591 44.0711 69.6368 44.0488 69.622 44.0265C69.6071 44.0042 69.6071 43.9745 69.6071 43.9448V37.0554C69.6071 37.0554 69.6071 36.996 69.622 36.9737C69.6368 36.9439 69.6591 36.9291 69.6963 36.9068C69.7335 36.8919 69.778 36.8771 69.8301 36.8696C69.8821 36.8622 69.9564 36.8622 70.0382 36.8622C70.1199 36.8622 70.1942 36.8622 70.2537 36.8696C70.3057 36.8771 70.3503 36.8919 70.38 36.9068C70.4098 36.9216 70.4321 36.9439 70.4469 36.9737C70.4618 36.996 70.4618 37.0257 70.4618 37.0554V38.1479C70.6624 37.8581 70.8408 37.6202 71.0117 37.4419C71.1827 37.2635 71.3387 37.1223 71.4948 37.0257C71.6509 36.9216 71.7995 36.8548 71.9407 36.825C72.0894 36.7879 72.238 36.773 72.3866 36.773C72.4535 36.773 72.5278 36.773 72.617 36.7804C72.7062 36.7879 72.7954 36.8027 72.892 36.825C72.9961 36.8473 73.0852 36.8696 73.1596 36.8994C73.2339 36.9291 73.2933 36.9514 73.3231 36.9737C73.3528 36.996 73.3751 37.0183 73.3825 37.0331C73.3899 37.048 73.4048 37.0703 73.4122 37.1C73.4197 37.1297 73.4271 37.1669 73.4271 37.2115C73.4271 37.2561 73.4271 37.323 73.4271 37.3973" fill="#898989"/>
<path d="M79.1051 39.8795C79.1199 39.1512 78.949 38.579 78.5997 38.1702C78.2504 37.7614 77.7376 37.5534 77.0687 37.5534C76.7269 37.5534 76.4222 37.6202 76.162 37.7466C75.9019 37.8729 75.679 38.0513 75.5006 38.2594C75.3222 38.4675 75.181 38.7202 75.0844 39.0026C74.9878 39.285 74.9358 39.5748 74.9209 39.8795H79.1051ZM80.0415 40.1471C80.0415 40.3329 79.9895 40.4592 79.8928 40.5261C79.7962 40.593 79.6996 40.6302 79.6104 40.6302H74.9209C74.9209 41.0538 74.9655 41.4402 75.0473 41.7895C75.129 42.1388 75.2702 42.4287 75.4634 42.6739C75.6567 42.9192 75.9019 43.105 76.2141 43.2388C76.5262 43.3725 76.9052 43.4394 77.3586 43.4394C77.6781 43.4394 77.968 43.4097 78.2207 43.3502C78.4734 43.2982 78.6963 43.2313 78.8821 43.1644C79.0679 43.0975 79.224 43.0307 79.3429 42.9786C79.4618 42.9192 79.5435 42.8895 79.5956 42.8895C79.6253 42.8895 79.655 42.8969 79.6773 42.9117C79.707 42.9266 79.7219 42.9489 79.7368 42.9786C79.7516 43.0158 79.7665 43.053 79.7739 43.105C79.7814 43.157 79.7814 43.2165 79.7814 43.2908C79.7814 43.3279 79.7814 43.3577 79.7739 43.3948C79.7739 43.4245 79.7665 43.4543 79.7591 43.484C79.7516 43.5137 79.7368 43.536 79.7219 43.5583C79.707 43.5881 79.6848 43.6103 79.6625 43.6326C79.6327 43.6549 79.5584 43.6995 79.4246 43.7664C79.2983 43.8333 79.1199 43.8928 78.9044 43.9596C78.6889 44.0265 78.4436 44.086 78.1612 44.138C77.8788 44.19 77.5741 44.2198 77.2471 44.2198C76.712 44.2198 76.2438 44.138 75.835 43.9819C75.4188 43.8184 75.077 43.5806 74.7946 43.2685C74.5196 42.9563 74.3041 42.5699 74.1554 42.1091C74.0142 41.6483 73.9399 41.1132 73.9399 40.4964C73.9399 39.8795 74.0142 39.389 74.1629 38.9283C74.3115 38.4675 74.527 38.0736 74.8094 37.7466C75.0844 37.427 75.4263 37.1818 75.8202 37.0108C76.2141 36.8399 76.6525 36.7581 77.1356 36.7581C77.6558 36.7581 78.0943 36.8473 78.4659 37.0183C78.8301 37.1892 79.1348 37.4196 79.3652 37.7169C79.603 38.0067 79.7739 38.3486 79.8854 38.735C79.9969 39.1215 80.0489 39.5228 80.0489 39.9539V40.1322L80.0415 40.1471Z" fill="#898989"/>
<path d="M84.4858 46.6872C84.4858 46.6872 84.4858 46.7466 84.4709 46.7689C84.456 46.7986 84.4337 46.8135 84.404 46.8358C84.3743 46.8507 84.3297 46.8655 84.2702 46.873C84.2182 46.8804 84.1513 46.8804 84.0696 46.8804C83.9878 46.8804 83.9209 46.8804 83.8689 46.873C83.8169 46.8655 83.7723 46.8507 83.7426 46.8358C83.7054 46.8209 83.6831 46.7986 83.6757 46.7689C83.6608 46.7466 83.6608 46.7169 83.6608 46.6872V33.4287C83.6608 33.4287 83.6608 33.3692 83.6757 33.3469C83.6906 33.3246 83.7129 33.3023 83.7426 33.2875C83.7723 33.2726 83.8169 33.2652 83.8689 33.2503C83.9209 33.2429 83.9878 33.2354 84.0696 33.2354C84.1513 33.2354 84.2182 33.2354 84.2702 33.2503C84.3297 33.2577 84.3743 33.2726 84.404 33.2875C84.4412 33.3023 84.4635 33.3246 84.4709 33.3469C84.4858 33.3766 84.4858 33.3989 84.4858 33.4287V46.6872Z" fill="#898989"/>
<path d="M89.6584 43.9596C89.6584 43.9596 89.6509 44.0191 89.6361 44.0414C89.6212 44.0637 89.5915 44.086 89.5617 44.1009C89.5246 44.1157 89.48 44.1306 89.4205 44.138C89.3611 44.1454 89.2868 44.1529 89.1976 44.1529C89.1084 44.1529 89.0341 44.1529 88.9746 44.138C88.9152 44.1306 88.8631 44.1157 88.826 44.1009C88.7888 44.086 88.7665 44.0637 88.7517 44.0414C88.7368 44.0191 88.7294 43.9894 88.7294 43.9596V34.3948C88.7294 34.3948 88.7368 34.3353 88.7517 34.313C88.7665 34.2833 88.7963 34.2685 88.8408 34.2536C88.878 34.2387 88.93 34.2239 88.9895 34.2164C89.0489 34.209 89.1158 34.2016 89.1976 34.2016C89.2868 34.2016 89.3611 34.2016 89.4205 34.2164C89.48 34.2239 89.5246 34.2387 89.5617 34.2536C89.5989 34.2685 89.6212 34.2908 89.6361 34.313C89.6509 34.3353 89.6584 34.3651 89.6584 34.3948V43.9596Z" fill="#898989"/>
<path d="M97.6476 43.9596C97.6476 43.9596 97.6402 44.0191 97.6253 44.0414C97.6105 44.0637 97.5882 44.086 97.551 44.1009C97.5213 44.1157 97.4693 44.1306 97.4172 44.138C97.3578 44.1454 97.2835 44.1529 97.2017 44.1529C97.1051 44.1529 97.0382 44.1529 96.9788 44.138C96.9193 44.1306 96.8747 44.1157 96.845 44.1009C96.8078 44.086 96.7855 44.0637 96.7707 44.0414C96.7558 44.0191 96.7484 43.9894 96.7484 43.9596V39.8647C96.7484 39.4411 96.7112 39.0918 96.6518 38.8242C96.5849 38.5567 96.4883 38.3263 96.3545 38.1405C96.2207 37.9472 96.0498 37.7986 95.8491 37.6946C95.641 37.5905 95.4032 37.5385 95.1282 37.5385C94.7789 37.5385 94.4296 37.6648 94.0803 37.9101C93.731 38.1553 93.3594 38.5269 92.9804 39.01V43.9596C92.9804 43.9596 92.973 44.0191 92.9581 44.0414C92.9432 44.0637 92.921 44.086 92.8838 44.1009C92.8541 44.1157 92.802 44.1306 92.75 44.138C92.6906 44.1454 92.6162 44.1529 92.5271 44.1529C92.4379 44.1529 92.371 44.1529 92.3115 44.138C92.2521 44.1306 92.2075 44.1157 92.1703 44.1009C92.1332 44.086 92.1109 44.0637 92.096 44.0414C92.0811 44.0191 92.0811 43.9894 92.0811 43.9596V37.0703C92.0811 37.0703 92.0811 37.0108 92.096 36.9885C92.1109 36.9588 92.1332 36.9439 92.1703 36.9216C92.2075 36.9068 92.2521 36.8919 92.3041 36.8845C92.3561 36.8771 92.4304 36.8771 92.5122 36.8771C92.5939 36.8771 92.6683 36.8771 92.7277 36.8845C92.7797 36.8919 92.8243 36.9068 92.8541 36.9216C92.8838 36.9365 92.9061 36.9588 92.9209 36.9885C92.9358 37.0108 92.9358 37.0406 92.9358 37.0703V38.0439C93.3371 37.5979 93.7236 37.2784 94.1026 37.0777C94.4816 36.8771 94.8607 36.7804 95.2397 36.7804C95.693 36.7804 96.0721 36.8548 96.3842 37.0108C96.6964 37.1669 96.9416 37.3676 97.1348 37.6277C97.3281 37.8878 97.4618 38.1925 97.5436 38.5344C97.6253 38.8837 97.6699 39.2999 97.6699 39.7829V43.9596H97.6476Z" fill="#898989"/>
<path d="M104.849 37.048C104.849 37.048 104.849 37.0777 104.849 37.1C104.849 37.1149 104.849 37.1372 104.842 37.152C104.842 37.1669 104.834 37.1892 104.827 37.2041C104.827 37.2189 104.819 37.2412 104.812 37.2561L102.315 43.9671C102.3 44.0042 102.278 44.0414 102.248 44.0637C102.218 44.0934 102.181 44.1083 102.136 44.1231C102.092 44.138 102.04 44.1529 101.973 44.1529C101.914 44.1529 101.832 44.1603 101.75 44.1603C101.668 44.1603 101.587 44.1603 101.52 44.1529C101.453 44.1454 101.401 44.1306 101.356 44.1157C101.312 44.1009 101.267 44.0786 101.245 44.0563C101.215 44.034 101.193 44.0042 101.178 43.9671L98.6732 37.2561C98.6584 37.2189 98.6435 37.1818 98.6361 37.1595C98.6287 37.1372 98.6212 37.1149 98.6212 37.1C98.6212 37.0851 98.6212 37.0703 98.6212 37.0629C98.6212 37.0257 98.6286 36.996 98.6435 36.9737C98.6584 36.9439 98.6807 36.9291 98.7104 36.9142C98.7476 36.8993 98.7922 36.8919 98.8442 36.8919C98.9036 36.8919 98.9705 36.8845 99.0523 36.8845C99.1637 36.8845 99.2529 36.8845 99.3198 36.8919C99.3867 36.8993 99.4387 36.9142 99.4759 36.9291C99.513 36.9439 99.5428 36.9662 99.5576 36.9885C99.5725 37.0108 99.5948 37.0406 99.6097 37.0777L101.78 43.0976L101.795 43.1347L101.81 43.0976L103.92 37.0777C103.92 37.0777 103.942 37.0108 103.965 36.9885C103.987 36.9588 104.017 36.9439 104.054 36.9291C104.091 36.9142 104.143 36.8993 104.21 36.8919C104.269 36.8845 104.359 36.8845 104.463 36.8845C104.544 36.8845 104.611 36.8845 104.663 36.8919C104.715 36.8919 104.76 36.9068 104.79 36.9216C104.819 36.9365 104.842 36.9588 104.857 36.9811C104.871 37.0034 104.871 37.0331 104.871 37.0703" fill="#898989"/>
<path d="M110.661 39.8795C110.676 39.1512 110.505 38.579 110.156 38.1702C109.806 37.7614 109.293 37.5534 108.625 37.5534C108.283 37.5534 107.978 37.6202 107.718 37.7466C107.458 37.8729 107.235 38.0513 107.056 38.2594C106.878 38.4675 106.737 38.7202 106.64 39.0026C106.544 39.285 106.492 39.5748 106.477 39.8795H110.661ZM111.597 40.1471C111.597 40.3329 111.545 40.4592 111.449 40.5261C111.352 40.593 111.255 40.6302 111.166 40.6302H106.477C106.477 41.0538 106.521 41.4402 106.603 41.7895C106.685 42.1388 106.826 42.4287 107.019 42.6739C107.212 42.9192 107.465 43.105 107.77 43.2388C108.082 43.3725 108.461 43.4394 108.914 43.4394C109.234 43.4394 109.524 43.4097 109.777 43.3502C110.029 43.2982 110.252 43.2313 110.438 43.1644C110.624 43.0975 110.772 43.0307 110.899 42.9786C111.018 42.9192 111.099 42.8895 111.151 42.8895C111.181 42.8895 111.211 42.8969 111.233 42.9117C111.263 42.9266 111.278 42.9489 111.293 42.9786C111.307 43.0158 111.322 43.053 111.33 43.105C111.337 43.157 111.337 43.2165 111.337 43.2908C111.337 43.3279 111.337 43.3577 111.33 43.3948C111.33 43.4245 111.322 43.4543 111.315 43.484C111.307 43.5137 111.293 43.536 111.278 43.5583C111.263 43.5881 111.241 43.6103 111.218 43.6326C111.189 43.6549 111.114 43.6995 110.98 43.7664C110.854 43.8333 110.676 43.8928 110.46 43.9596C110.245 44.0265 109.999 44.086 109.717 44.138C109.435 44.19 109.13 44.2198 108.803 44.2198C108.268 44.2198 107.8 44.138 107.391 43.9819C106.975 43.8184 106.633 43.5806 106.35 43.2685C106.075 42.9563 105.86 42.5699 105.711 42.1091C105.57 41.6483 105.496 41.1132 105.496 40.4964C105.496 39.8795 105.57 39.389 105.719 38.9283C105.867 38.4675 106.083 38.0736 106.365 37.7466C106.64 37.427 106.982 37.1818 107.376 37.0108C107.77 36.8399 108.208 36.7581 108.691 36.7581C109.212 36.7581 109.65 36.8473 110.014 37.0183C110.378 37.1892 110.683 37.4196 110.914 37.7169C111.151 38.0067 111.322 38.3486 111.434 38.735C111.545 39.1215 111.597 39.5228 111.597 39.9539V40.1322V40.1471Z" fill="#898989"/>
<path d="M117.431 42.1165C117.431 42.4435 117.372 42.7408 117.253 43.0009C117.134 43.2611 116.956 43.484 116.733 43.6698C116.51 43.8556 116.235 43.9894 115.923 44.086C115.603 44.1826 115.261 44.2346 114.875 44.2346C114.637 44.2346 114.407 44.2198 114.198 44.1752C113.983 44.138 113.79 44.086 113.619 44.0265C113.448 43.9671 113.299 43.9076 113.18 43.8407C113.061 43.7739 112.972 43.7144 112.92 43.6624C112.861 43.6104 112.824 43.5509 112.801 43.4691C112.772 43.3948 112.764 43.2908 112.764 43.1644C112.764 43.0976 112.764 43.0455 112.779 42.9935C112.786 42.9415 112.801 42.8969 112.816 42.8672C112.831 42.83 112.853 42.8077 112.876 42.7854C112.898 42.7705 112.928 42.7631 112.957 42.7631C113.017 42.7631 113.099 42.8003 113.203 42.8672C113.307 42.934 113.448 43.0158 113.604 43.0976C113.767 43.1793 113.953 43.2536 114.176 43.3279C114.399 43.3948 114.652 43.432 114.942 43.432C115.172 43.432 115.388 43.4097 115.581 43.3577C115.774 43.3056 115.945 43.2313 116.086 43.1273C116.227 43.0232 116.339 42.8969 116.421 42.7334C116.495 42.5699 116.54 42.3841 116.54 42.176C116.54 41.9679 116.487 41.7821 116.383 41.6335C116.279 41.4848 116.153 41.3585 115.982 41.247C115.819 41.1355 115.625 41.0389 115.417 40.9572C115.209 40.868 114.994 40.7862 114.771 40.697C114.548 40.6079 114.332 40.5113 114.124 40.3998C113.916 40.2957 113.723 40.162 113.559 40.0133C113.396 39.8572 113.262 39.6789 113.158 39.4634C113.054 39.2478 113.002 38.9951 113.002 38.6904C113.002 38.4526 113.047 38.2148 113.143 37.9844C113.232 37.754 113.374 37.5459 113.567 37.3601C113.76 37.1818 113.998 37.0331 114.295 36.9142C114.592 36.8027 114.942 36.7507 115.35 36.7507C115.521 36.7507 115.692 36.7656 115.863 36.7953C116.034 36.825 116.19 36.8622 116.331 36.9068C116.473 36.9514 116.592 37.0034 116.696 37.0554C116.8 37.1074 116.874 37.152 116.926 37.1966C116.978 37.2338 117.015 37.2709 117.03 37.3007C117.045 37.3304 117.06 37.3601 117.067 37.3899C117.075 37.4196 117.082 37.4567 117.082 37.5013C117.082 37.5459 117.089 37.5979 117.089 37.6574C117.089 37.7169 117.089 37.7763 117.082 37.8209C117.075 37.8729 117.06 37.9101 117.045 37.9472C117.03 37.9844 117.008 38.0067 116.985 38.029C116.963 38.0439 116.933 38.0587 116.904 38.0587C116.859 38.0587 116.8 38.029 116.718 37.977C116.636 37.925 116.532 37.8581 116.398 37.7912C116.272 37.7243 116.108 37.6648 115.93 37.6128C115.752 37.5608 115.536 37.5311 115.298 37.5311C115.061 37.5311 114.845 37.5608 114.667 37.6128C114.488 37.6723 114.34 37.7466 114.221 37.8506C114.102 37.9547 114.013 38.0736 113.961 38.2074C113.901 38.3486 113.871 38.4972 113.871 38.6607C113.871 38.8837 113.923 39.0695 114.028 39.2255C114.132 39.3816 114.258 39.5154 114.429 39.6269C114.592 39.7383 114.786 39.8349 115.001 39.9241C115.217 40.0133 115.432 40.0951 115.655 40.1842C115.878 40.2734 116.094 40.37 116.309 40.4741C116.525 40.5781 116.718 40.7045 116.881 40.8531C117.052 41.0018 117.186 41.1801 117.283 41.3808C117.387 41.5889 117.439 41.8341 117.439 42.124" fill="#898989"/>
<path d="M122.21 43.536C122.21 43.6401 122.203 43.7293 122.188 43.7961C122.173 43.863 122.143 43.9151 122.099 43.9522C122.061 43.9894 122.002 44.0265 121.935 44.0563C121.861 44.086 121.779 44.1157 121.682 44.138C121.586 44.1603 121.482 44.1826 121.378 44.19C121.274 44.2049 121.17 44.2049 121.066 44.2049C120.724 44.2049 120.434 44.1603 120.196 44.0637C119.958 43.9745 119.765 43.8333 119.609 43.6475C119.46 43.4617 119.349 43.2239 119.282 42.9415C119.215 42.6591 119.178 42.3246 119.178 41.9382V37.65H118.152C118.085 37.65 118.026 37.6202 117.989 37.5534C117.952 37.4865 117.929 37.3973 117.929 37.2709C117.929 37.2041 117.929 37.152 117.944 37.1C117.952 37.0554 117.966 37.0108 117.989 36.9811C118.011 36.9514 118.033 36.9291 118.063 36.9142C118.093 36.8993 118.122 36.8919 118.16 36.8919H119.185V35.1974C119.185 35.1974 119.185 35.138 119.2 35.1157C119.215 35.086 119.237 35.0711 119.274 35.0488C119.312 35.0339 119.356 35.0191 119.416 35.0116C119.475 35.0042 119.542 35.0042 119.631 35.0042C119.72 35.0042 119.795 35.0042 119.854 35.0116C119.914 35.0191 119.958 35.0339 119.988 35.0488C120.025 35.0637 120.047 35.086 120.062 35.1157C120.077 35.138 120.085 35.1677 120.085 35.1974V36.8919H121.995C121.995 36.8919 122.061 36.8993 122.091 36.9142C122.113 36.9291 122.143 36.9514 122.165 36.9811C122.18 37.0183 122.203 37.0554 122.21 37.1C122.217 37.1446 122.225 37.2041 122.225 37.2709C122.225 37.3973 122.203 37.4939 122.158 37.5534C122.113 37.6128 122.061 37.65 121.995 37.65H120.085V41.8193C120.085 42.3395 120.159 42.7408 120.307 43.0158C120.456 43.2908 120.731 43.4246 121.125 43.4246C121.244 43.4246 121.355 43.4097 121.459 43.3874C121.556 43.3651 121.645 43.3354 121.72 43.3056C121.801 43.2759 121.861 43.2462 121.913 43.2239C121.965 43.2016 122.017 43.1867 122.054 43.1867C122.076 43.1867 122.106 43.1867 122.121 43.2016C122.143 43.209 122.158 43.2313 122.173 43.261C122.188 43.2908 122.195 43.3279 122.203 43.3651C122.21 43.4097 122.21 43.4617 122.21 43.5286" fill="#898989"/>
<path d="M126.387 46.6872C126.387 46.6872 126.387 46.7466 126.372 46.7689C126.357 46.7986 126.335 46.8135 126.305 46.8358C126.275 46.8507 126.231 46.8655 126.171 46.873C126.119 46.8804 126.052 46.8804 125.971 46.8804C125.889 46.8804 125.822 46.8804 125.77 46.873C125.718 46.8655 125.673 46.8507 125.644 46.8358C125.606 46.8209 125.584 46.7986 125.577 46.7689C125.562 46.7466 125.562 46.7169 125.562 46.6872V33.4287C125.562 33.4287 125.562 33.3692 125.577 33.3469C125.592 33.3246 125.614 33.3023 125.644 33.2875C125.673 33.2726 125.718 33.2652 125.77 33.2503C125.822 33.2429 125.889 33.2354 125.971 33.2354C126.052 33.2354 126.119 33.2354 126.171 33.2503C126.231 33.2577 126.275 33.2726 126.305 33.2875C126.342 33.3023 126.364 33.3246 126.372 33.3469C126.387 33.3766 126.387 33.3989 126.387 33.4287V46.6872Z" fill="#898989"/>
<path d="M136.613 34.6698C136.613 34.7367 136.613 34.7961 136.598 34.8407C136.591 34.8927 136.576 34.9373 136.554 34.9671C136.531 34.9968 136.509 35.0265 136.472 35.0414C136.442 35.0562 136.412 35.0711 136.375 35.0711H133.425V43.9596C133.425 43.9596 133.417 44.0191 133.402 44.0414C133.388 44.0637 133.358 44.086 133.328 44.1009C133.291 44.1157 133.239 44.1306 133.179 44.138C133.12 44.1454 133.038 44.1529 132.957 44.1529C132.875 44.1529 132.793 44.1529 132.734 44.138C132.674 44.1306 132.622 44.1157 132.585 44.1009C132.548 44.086 132.525 44.0637 132.511 44.0414C132.496 44.0191 132.488 43.9894 132.488 43.9596V35.0711H129.538C129.493 35.0711 129.464 35.0637 129.434 35.0414C129.412 35.0265 129.382 34.9968 129.36 34.9671C129.345 34.9299 129.322 34.8927 129.315 34.8407C129.307 34.7887 129.3 34.7367 129.3 34.6698C129.3 34.6029 129.3 34.536 129.315 34.484C129.322 34.432 129.337 34.3874 129.36 34.3502C129.382 34.313 129.404 34.2908 129.434 34.2685C129.464 34.2536 129.493 34.2462 129.538 34.2462H136.368C136.368 34.2462 136.435 34.2536 136.464 34.2685C136.494 34.2833 136.524 34.313 136.546 34.3502C136.561 34.3874 136.583 34.432 136.591 34.484C136.598 34.536 136.606 34.5955 136.606 34.6698" fill="#898989"/>
<path d="M140.448 37.4047C140.448 37.479 140.448 37.5459 140.44 37.598C140.44 37.65 140.426 37.6946 140.418 37.7243C140.403 37.7615 140.388 37.7837 140.374 37.7986C140.359 37.8135 140.329 37.8283 140.299 37.8283C140.255 37.8283 140.203 37.8209 140.143 37.7912C140.084 37.7689 140.009 37.7466 139.928 37.7169C139.846 37.6871 139.757 37.6648 139.66 37.6425C139.563 37.6202 139.459 37.6054 139.341 37.6054C139.207 37.6054 139.073 37.6351 138.939 37.6946C138.805 37.754 138.672 37.8506 138.523 37.977C138.382 38.1033 138.226 38.2817 138.07 38.4972C137.906 38.7127 137.735 38.9729 137.542 39.285V43.9448C137.542 43.9448 137.535 44.0042 137.52 44.0265C137.505 44.0488 137.483 44.0711 137.445 44.086C137.416 44.1009 137.364 44.1157 137.312 44.1232C137.252 44.1306 137.178 44.138 137.089 44.138C136.999 44.138 136.933 44.138 136.873 44.1232C136.814 44.1157 136.769 44.1009 136.732 44.086C136.695 44.0711 136.672 44.0488 136.658 44.0265C136.643 44.0042 136.643 43.9745 136.643 43.9448V37.0554C136.643 37.0554 136.643 36.996 136.658 36.9737C136.672 36.9439 136.695 36.9291 136.732 36.9068C136.769 36.8919 136.814 36.8771 136.866 36.8696C136.918 36.8622 136.992 36.8622 137.074 36.8622C137.156 36.8622 137.23 36.8622 137.289 36.8696C137.341 36.8771 137.386 36.8919 137.416 36.9068C137.445 36.9216 137.468 36.9439 137.483 36.9737C137.497 36.996 137.497 37.0257 137.497 37.0554V38.1479C137.698 37.8581 137.876 37.6202 138.047 37.4419C138.218 37.2635 138.374 37.1223 138.53 37.0257C138.687 36.9216 138.835 36.8548 138.976 36.825C139.125 36.7879 139.274 36.773 139.422 36.773C139.489 36.773 139.563 36.773 139.653 36.7804C139.742 36.7879 139.831 36.8027 139.928 36.825C140.032 36.8473 140.121 36.8696 140.195 36.8994C140.27 36.9291 140.329 36.9514 140.359 36.9737C140.388 36.996 140.411 37.0183 140.418 37.0331C140.426 37.048 140.44 37.0703 140.448 37.1C140.455 37.1297 140.463 37.1669 140.463 37.2115C140.463 37.2561 140.463 37.323 140.463 37.3973" fill="#898989"/>
<path d="M145.301 40.6896H144.045C143.681 40.6896 143.361 40.7268 143.086 40.7862C142.811 40.8531 142.581 40.9497 142.403 41.0761C142.224 41.2024 142.083 41.3511 141.994 41.5368C141.905 41.7152 141.86 41.9159 141.86 42.1463C141.86 42.5476 141.986 42.8597 142.239 43.0975C142.492 43.3354 142.841 43.4543 143.294 43.4543C143.651 43.4543 143.986 43.3577 144.298 43.1793C144.61 42.9935 144.937 42.7111 145.286 42.3246V40.697L145.301 40.6896ZM146.208 43.9596C146.208 44.0117 146.193 44.0488 146.156 44.0786C146.118 44.1083 146.081 44.1306 146.022 44.138C145.97 44.1529 145.896 44.1529 145.806 44.1529C145.717 44.1529 145.65 44.1529 145.583 44.138C145.524 44.1231 145.479 44.1009 145.442 44.0786C145.405 44.0488 145.39 44.0117 145.39 43.9596V43.1867C145.078 43.5212 144.736 43.7813 144.365 43.9596C143.993 44.138 143.606 44.2272 143.205 44.2272C142.841 44.2272 142.521 44.1826 142.232 44.086C141.942 43.9894 141.704 43.8556 141.503 43.6772C141.303 43.5063 141.154 43.2908 141.042 43.0381C140.938 42.7854 140.886 42.5104 140.886 42.1983C140.886 41.8193 140.968 41.4848 141.124 41.2024C141.28 40.92 141.503 40.6822 141.793 40.4964C142.083 40.3106 142.432 40.1694 142.834 40.0728C143.242 39.9762 143.696 39.9316 144.194 39.9316H145.286V39.3444C145.286 39.0472 145.256 38.787 145.197 38.5641C145.137 38.3411 145.033 38.1479 144.9 37.9993C144.758 37.8506 144.587 37.7317 144.365 37.6574C144.149 37.5831 143.881 37.5459 143.562 37.5459C143.242 37.5459 142.982 37.5831 142.737 37.6574C142.492 37.7317 142.284 37.8135 142.098 37.9027C141.912 37.9918 141.763 38.0736 141.644 38.1479C141.526 38.2222 141.444 38.2594 141.392 38.2594C141.362 38.2594 141.332 38.2594 141.31 38.2445C141.288 38.2371 141.265 38.2148 141.243 38.1851C141.228 38.1628 141.213 38.1256 141.206 38.081C141.199 38.0364 141.199 37.9844 141.199 37.9249C141.199 37.8209 141.206 37.7317 141.221 37.6723C141.236 37.6054 141.273 37.5459 141.34 37.479C141.407 37.4121 141.518 37.3378 141.682 37.2561C141.845 37.1669 142.031 37.0851 142.246 37.0108C142.455 36.9365 142.685 36.8771 142.923 36.8325C143.168 36.7879 143.413 36.7656 143.651 36.7656C144.127 36.7656 144.521 36.825 144.848 36.9365C145.175 37.048 145.435 37.2115 145.635 37.427C145.836 37.6425 145.977 37.9027 146.066 38.2148C146.156 38.5269 146.193 38.8837 146.193 39.2776V43.9448L146.208 43.9596Z" fill="#898989"/>
<path d="M153.996 43.9596C153.996 43.9596 153.989 44.0191 153.974 44.0414C153.959 44.0637 153.937 44.086 153.9 44.1009C153.87 44.1157 153.818 44.1306 153.766 44.138C153.706 44.1454 153.632 44.1529 153.55 44.1529C153.454 44.1529 153.387 44.1529 153.327 44.138C153.268 44.1306 153.223 44.1157 153.194 44.1009C153.156 44.086 153.134 44.0637 153.119 44.0414C153.104 44.0191 153.097 43.9894 153.097 43.9596V39.8647C153.097 39.4411 153.06 39.0918 153 38.8242C152.933 38.5567 152.837 38.3263 152.703 38.1405C152.569 37.9472 152.398 37.7986 152.198 37.6946C151.99 37.5905 151.752 37.5385 151.477 37.5385C151.128 37.5385 150.778 37.6648 150.429 37.9101C150.08 38.1553 149.708 38.5269 149.329 39.01V43.9596C149.329 43.9596 149.322 44.0191 149.307 44.0414C149.292 44.0637 149.27 44.086 149.232 44.1009C149.203 44.1157 149.151 44.1306 149.099 44.138C149.039 44.1454 148.965 44.1529 148.876 44.1529C148.786 44.1529 148.72 44.1529 148.66 44.138C148.601 44.1306 148.556 44.1157 148.519 44.1009C148.482 44.086 148.459 44.0637 148.445 44.0414C148.43 44.0191 148.43 43.9894 148.43 43.9596V37.0703C148.43 37.0703 148.43 37.0108 148.445 36.9885C148.459 36.9588 148.482 36.9439 148.519 36.9216C148.556 36.9068 148.601 36.8919 148.653 36.8845C148.705 36.8771 148.779 36.8771 148.861 36.8771C148.943 36.8771 149.017 36.8771 149.076 36.8845C149.128 36.8919 149.173 36.9068 149.203 36.9216C149.232 36.9365 149.255 36.9588 149.27 36.9885C149.284 37.0108 149.284 37.0406 149.284 37.0703V38.0439C149.686 37.5979 150.072 37.2784 150.451 37.0777C150.83 36.8771 151.209 36.7804 151.588 36.7804C152.042 36.7804 152.421 36.8548 152.733 37.0108C153.045 37.1669 153.29 37.3676 153.483 37.6277C153.677 37.8878 153.81 38.1925 153.892 38.5344C153.974 38.8837 154.019 39.2999 154.019 39.7829V43.9596H153.996Z" fill="#898989"/>
<path d="M160.261 42.1165C160.261 42.4435 160.202 42.7408 160.083 43.0009C159.964 43.2611 159.786 43.484 159.563 43.6698C159.34 43.8556 159.065 43.9894 158.753 44.086C158.433 44.1826 158.091 44.2346 157.705 44.2346C157.467 44.2346 157.237 44.2198 157.028 44.1752C156.813 44.138 156.62 44.086 156.449 44.0265C156.278 43.9671 156.129 43.9076 156.01 43.8407C155.891 43.7739 155.802 43.7144 155.75 43.6624C155.691 43.6104 155.654 43.5509 155.631 43.4691C155.602 43.3948 155.594 43.2908 155.594 43.1644C155.594 43.0976 155.594 43.0455 155.609 42.9935C155.616 42.9415 155.631 42.8969 155.646 42.8672C155.661 42.83 155.683 42.8077 155.706 42.7854C155.728 42.7705 155.758 42.7631 155.787 42.7631C155.847 42.7631 155.929 42.8003 156.033 42.8672C156.137 42.934 156.278 43.0158 156.434 43.0976C156.597 43.1793 156.783 43.2536 157.006 43.3279C157.229 43.3948 157.482 43.432 157.772 43.432C158.002 43.432 158.218 43.4097 158.411 43.3577C158.604 43.3056 158.775 43.2313 158.916 43.1273C159.057 43.0232 159.169 42.8969 159.251 42.7334C159.325 42.5699 159.37 42.3841 159.37 42.176C159.37 41.9679 159.317 41.7821 159.213 41.6335C159.109 41.4848 158.976 41.3585 158.812 41.247C158.649 41.1355 158.455 41.0389 158.247 40.9572C158.039 40.868 157.824 40.7862 157.601 40.697C157.378 40.6079 157.162 40.5113 156.954 40.3998C156.746 40.2957 156.553 40.162 156.389 40.0133C156.226 39.8572 156.092 39.6789 155.988 39.4634C155.884 39.2478 155.832 38.9951 155.832 38.6904C155.832 38.4526 155.877 38.2148 155.973 37.9844C156.062 37.754 156.204 37.5459 156.397 37.3601C156.59 37.1818 156.828 37.0331 157.125 36.9142C157.422 36.8027 157.772 36.7507 158.18 36.7507C158.351 36.7507 158.522 36.7656 158.693 36.7953C158.864 36.825 159.02 36.8622 159.161 36.9068C159.303 36.9514 159.422 37.0034 159.526 37.0554C159.63 37.1074 159.704 37.152 159.756 37.1966C159.808 37.2338 159.845 37.2709 159.86 37.3007C159.875 37.3304 159.89 37.3601 159.897 37.3899C159.905 37.4196 159.912 37.4567 159.912 37.5013C159.912 37.5459 159.919 37.5979 159.919 37.6574C159.919 37.7169 159.919 37.7763 159.912 37.8209C159.905 37.8729 159.89 37.9101 159.875 37.9472C159.86 37.9844 159.838 38.0067 159.815 38.029C159.793 38.0439 159.763 38.0587 159.734 38.0587C159.689 38.0587 159.63 38.029 159.548 37.977C159.466 37.925 159.362 37.8581 159.228 37.7912C159.102 37.7243 158.938 37.6648 158.76 37.6128C158.582 37.5608 158.366 37.5311 158.128 37.5311C157.891 37.5311 157.675 37.5608 157.497 37.6128C157.318 37.6723 157.17 37.7466 157.051 37.8506C156.932 37.9547 156.843 38.0736 156.791 38.2074C156.731 38.3486 156.701 38.4972 156.701 38.6607C156.701 38.8837 156.753 39.0695 156.858 39.2255C156.962 39.3816 157.095 39.5154 157.259 39.6269C157.422 39.7383 157.616 39.8349 157.831 39.9241C158.047 40.0133 158.262 40.0951 158.485 40.1842C158.708 40.2734 158.924 40.37 159.139 40.4741C159.355 40.5781 159.548 40.7045 159.711 40.8531C159.882 41.0018 160.016 41.1801 160.113 41.3808C160.217 41.5889 160.269 41.8341 160.269 42.124" fill="#898989"/>
<path d="M165.345 34.1124C165.345 34.1793 165.345 34.2387 165.337 34.2833C165.33 34.3279 165.322 34.3651 165.308 34.3874C165.293 34.4097 165.278 34.432 165.263 34.4394C165.248 34.4468 165.226 34.4543 165.196 34.4543C165.159 34.4543 165.107 34.4394 165.055 34.4171C164.995 34.3874 164.929 34.3651 164.847 34.3353C164.765 34.3056 164.668 34.2759 164.55 34.2536C164.438 34.2239 164.297 34.2164 164.148 34.2164C163.933 34.2164 163.754 34.2536 163.606 34.3205C163.457 34.3874 163.338 34.4988 163.249 34.6475C163.16 34.7961 163.093 34.9894 163.056 35.2272C163.019 35.465 162.996 35.7474 162.996 36.0893V36.9068H164.698C164.698 36.9068 164.765 36.9142 164.787 36.9291C164.817 36.9439 164.839 36.9662 164.854 36.996C164.869 37.0331 164.891 37.0703 164.899 37.1149C164.906 37.1595 164.914 37.2189 164.914 37.2858C164.914 37.4121 164.891 37.5088 164.854 37.5682C164.817 37.6277 164.758 37.6648 164.698 37.6648H162.996V43.9596C162.996 43.9596 162.989 44.0191 162.974 44.0414C162.959 44.0637 162.937 44.086 162.9 44.1009C162.87 44.1157 162.825 44.1306 162.758 44.138C162.699 44.1454 162.625 44.1529 162.543 44.1529C162.461 44.1529 162.387 44.1529 162.327 44.138C162.268 44.1306 162.223 44.1157 162.186 44.1009C162.149 44.086 162.127 44.0637 162.112 44.0414C162.097 44.0191 162.097 43.9894 162.097 43.9596V37.6648H161.057C160.99 37.6648 160.93 37.6351 160.893 37.5682C160.856 37.5013 160.834 37.4121 160.834 37.2858C160.834 37.2189 160.834 37.1669 160.848 37.1149C160.856 37.0703 160.871 37.0257 160.893 36.996C160.908 36.9662 160.938 36.9439 160.96 36.9291C160.982 36.9142 161.019 36.9068 161.057 36.9068H162.097V36.119C162.097 35.6359 162.142 35.2272 162.231 34.8853C162.32 34.5434 162.446 34.2685 162.625 34.0529C162.796 33.8374 163.019 33.6813 163.286 33.5847C163.554 33.4881 163.858 33.4361 164.208 33.4361C164.379 33.4361 164.55 33.451 164.713 33.4881C164.877 33.5253 165.003 33.555 165.085 33.5922C165.166 33.6293 165.226 33.6665 165.256 33.6962C165.285 33.7185 165.308 33.7557 165.322 33.8002C165.337 33.8448 165.352 33.8894 165.36 33.9415C165.367 33.9935 165.367 34.0529 165.367 34.1198" fill="#898989"/>
<path d="M170.867 40.5112C170.867 40.1174 170.83 39.7458 170.755 39.3965C170.681 39.0397 170.555 38.7276 170.376 38.46C170.198 38.1851 169.96 37.977 169.663 37.8135C169.365 37.6574 168.994 37.5757 168.548 37.5757C168.139 37.5757 167.782 37.65 167.485 37.7986C167.188 37.9472 166.943 38.1479 166.749 38.408C166.556 38.6681 166.422 38.9803 166.326 39.337C166.237 39.6937 166.185 40.0728 166.185 40.489C166.185 40.9051 166.222 41.2619 166.296 41.6186C166.37 41.9753 166.497 42.2875 166.675 42.5624C166.853 42.83 167.091 43.0455 167.389 43.2016C167.686 43.3577 168.057 43.4394 168.503 43.4394C168.912 43.4394 169.269 43.3651 169.566 43.2165C169.863 43.0678 170.109 42.8672 170.302 42.607C170.495 42.3469 170.629 42.0422 170.725 41.6855C170.815 41.3288 170.867 40.9423 170.867 40.5261M171.833 40.4295C171.833 40.9795 171.766 41.4848 171.617 41.9456C171.476 42.4064 171.261 42.8077 170.978 43.1496C170.696 43.4914 170.346 43.759 169.923 43.9448C169.499 44.138 169.009 44.2346 168.451 44.2346C167.894 44.2346 167.441 44.1454 167.039 43.9819C166.638 43.811 166.296 43.5658 166.021 43.2536C165.754 42.934 165.545 42.555 165.412 42.1017C165.278 41.6483 165.211 41.1355 165.211 40.5707C165.211 40.0059 165.278 39.5154 165.419 39.0546C165.56 38.5938 165.768 38.1925 166.051 37.8581C166.333 37.5162 166.683 37.2561 167.106 37.0703C167.53 36.8845 168.02 36.7879 168.585 36.7879C169.15 36.7879 169.596 36.8696 169.997 37.0406C170.398 37.2041 170.74 37.4493 171.008 37.7689C171.275 38.0884 171.484 38.4675 171.617 38.9208C171.758 39.3742 171.825 39.8795 171.825 40.4444L171.833 40.4295Z" fill="#898989"/>
<path d="M177.377 37.4047C177.377 37.479 177.377 37.5459 177.37 37.598C177.37 37.65 177.355 37.6946 177.347 37.7243C177.332 37.7615 177.318 37.7837 177.303 37.7986C177.288 37.8135 177.258 37.8283 177.228 37.8283C177.184 37.8283 177.132 37.8209 177.072 37.7912C177.013 37.7689 176.939 37.7466 176.857 37.7169C176.775 37.6871 176.686 37.6648 176.589 37.6425C176.493 37.6202 176.389 37.6054 176.27 37.6054C176.136 37.6054 176.002 37.6351 175.868 37.6946C175.735 37.754 175.601 37.8506 175.452 37.977C175.311 38.1033 175.155 38.2817 174.999 38.4972C174.835 38.7127 174.657 38.9729 174.471 39.285V43.9448C174.471 43.9448 174.464 44.0042 174.449 44.0265C174.434 44.0488 174.412 44.0711 174.375 44.086C174.345 44.1009 174.293 44.1157 174.241 44.1232C174.181 44.1306 174.107 44.138 174.018 44.138C173.929 44.138 173.862 44.138 173.802 44.1232C173.743 44.1157 173.698 44.1009 173.661 44.086C173.624 44.0711 173.602 44.0488 173.587 44.0265C173.572 44.0042 173.572 43.9745 173.572 43.9448V37.0554C173.572 37.0554 173.572 36.996 173.587 36.9737C173.602 36.9439 173.624 36.9291 173.661 36.9068C173.698 36.8919 173.743 36.8771 173.795 36.8696C173.847 36.8622 173.921 36.8622 174.003 36.8622C174.085 36.8622 174.159 36.8622 174.218 36.8696C174.27 36.8771 174.315 36.8919 174.345 36.9068C174.375 36.9216 174.397 36.9439 174.412 36.9737C174.427 36.996 174.427 37.0257 174.427 37.0554V38.1479C174.627 37.8581 174.806 37.6202 174.976 37.4419C175.147 37.2635 175.303 37.1223 175.46 37.0257C175.616 36.9216 175.764 36.8548 175.905 36.825C176.054 36.7879 176.203 36.773 176.351 36.773C176.418 36.773 176.493 36.773 176.582 36.7804C176.671 36.7879 176.76 36.8027 176.857 36.825C176.961 36.8473 177.05 36.8696 177.124 36.8994C177.199 36.9291 177.258 36.9514 177.288 36.9737C177.318 36.996 177.34 37.0183 177.347 37.0331C177.355 37.048 177.37 37.0703 177.377 37.1C177.384 37.1297 177.392 37.1669 177.392 37.2115C177.392 37.2561 177.392 37.323 177.392 37.3973" fill="#898989"/>
<path d="M188.451 43.9597C188.451 43.9597 188.443 44.0191 188.428 44.0414C188.413 44.0637 188.391 44.086 188.354 44.1009C188.324 44.1157 188.28 44.1306 188.22 44.138C188.161 44.1454 188.094 44.1529 188.005 44.1529C187.908 44.1529 187.841 44.1529 187.782 44.138C187.722 44.1306 187.678 44.1157 187.64 44.1009C187.603 44.086 187.581 44.0637 187.566 44.0414C187.551 44.0191 187.551 43.9894 187.551 43.9597V39.7086C187.551 39.3816 187.522 39.0843 187.462 38.8242C187.403 38.5567 187.313 38.3263 187.187 38.1405C187.061 37.9472 186.905 37.7986 186.711 37.6946C186.518 37.5905 186.295 37.5385 186.035 37.5385C185.716 37.5385 185.389 37.6648 185.062 37.9101C184.735 38.1553 184.37 38.5269 183.984 39.01V43.9597C183.984 43.9597 183.977 44.0191 183.962 44.0414C183.947 44.0637 183.924 44.086 183.887 44.1009C183.85 44.1157 183.806 44.1306 183.746 44.138C183.687 44.1454 183.612 44.1529 183.531 44.1529C183.449 44.1529 183.375 44.1529 183.315 44.138C183.256 44.1306 183.211 44.1157 183.174 44.1009C183.137 44.086 183.114 44.0637 183.1 44.0414C183.085 44.0191 183.085 43.9894 183.085 43.9597V39.7086C183.085 39.3816 183.055 39.0843 182.995 38.8242C182.936 38.5567 182.839 38.3263 182.721 38.1405C182.594 37.9472 182.438 37.7986 182.245 37.6946C182.052 37.5905 181.829 37.5385 181.569 37.5385C181.249 37.5385 180.929 37.6648 180.595 37.9101C180.268 38.1553 179.911 38.5269 179.525 39.01V43.9597C179.525 43.9597 179.517 44.0191 179.503 44.0414C179.488 44.0637 179.465 44.086 179.428 44.1009C179.398 44.1157 179.346 44.1306 179.294 44.138C179.235 44.1454 179.161 44.1529 179.071 44.1529C178.982 44.1529 178.915 44.1529 178.856 44.138C178.796 44.1306 178.752 44.1157 178.715 44.1009C178.678 44.086 178.655 44.0637 178.64 44.0414C178.626 44.0191 178.626 43.9894 178.626 43.9597V37.0703C178.626 37.0703 178.626 37.0108 178.64 36.9885C178.655 36.9588 178.678 36.9439 178.715 36.9216C178.752 36.9068 178.796 36.8919 178.848 36.8845C178.901 36.8771 178.975 36.8771 179.057 36.8771C179.138 36.8771 179.213 36.8771 179.272 36.8845C179.324 36.8919 179.369 36.9068 179.398 36.9216C179.428 36.9365 179.45 36.9588 179.465 36.9885C179.48 37.0108 179.48 37.0406 179.48 37.0703V38.0439C179.882 37.5979 180.253 37.2784 180.61 37.0777C180.967 36.8771 181.323 36.7804 181.673 36.7804C181.962 36.7804 182.223 36.8176 182.446 36.8845C182.668 36.9514 182.869 37.048 183.048 37.1743C183.218 37.3007 183.367 37.4493 183.486 37.6202C183.605 37.7912 183.709 37.9844 183.783 38.1925C184.021 37.925 184.251 37.702 184.46 37.5236C184.668 37.3453 184.868 37.1966 185.062 37.0852C185.255 36.9737 185.433 36.8994 185.612 36.8473C185.79 36.7953 185.968 36.773 186.139 36.773C186.57 36.773 186.934 36.8473 187.232 37.0034C187.529 37.1595 187.767 37.3601 187.945 37.6202C188.131 37.8804 188.257 38.1851 188.332 38.5269C188.413 38.8762 188.451 39.2404 188.451 39.6269V43.9597Z" fill="#898989"/>
</g>
<defs>
<clipPath id="clip0_1_890">
<rect width="242.503" height="46.8878" fill="white"/>
</clipPath>
</defs>
</svg>
