<svg width="41" height="40" viewBox="0 0 41 40" fill="none" xmlns="http://www.w3.org/2000/svg">
<path d="M11.9915 22.5928C13.146 26.1612 16.5645 28.5452 20.3129 28.4102C19.1584 24.8418 15.7399 22.4578 11.9915 22.5928ZM20.013 30.5243C15.0202 30.5243 10.5522 26.9259 9.65258 21.8581L9.47266 20.8085L10.5222 20.6286C16.2047 19.6391 21.6623 23.4624 22.6818 29.1449L22.8618 30.1944L21.8122 30.3744C21.1975 30.4793 20.5978 30.5243 20.013 30.5243Z" fill="black"/>
<path d="M37.5398 16.4308C33.4316 17.8402 30.0131 20.659 27.8241 24.4673C25.65 28.2756 24.9453 32.6537 25.815 36.9118C29.9232 35.5024 33.3417 32.6837 35.5307 28.8754C37.7197 25.082 38.4094 20.704 37.5398 16.4308ZM25.1852 39.3258L24.0457 38.5311C22.6663 33.4034 23.371 28.0357 26.0099 23.4178C28.6487 18.8148 32.9218 15.4862 38.0346 14.0769L39.0541 13.792L39.324 14.8265C40.7034 19.9543 39.9987 25.3219 37.3599 29.9399C34.721 34.5429 30.4479 37.8714 25.3352 39.2808L25.1852 39.3258Z" fill="black"/>
<path d="M19.9974 39.9996C14.5548 39.9996 9.26214 37.7806 5.42383 33.6874L6.96815 32.248C11.4962 37.0609 18.2732 38.9801 24.6454 37.2858L25.1851 39.3249C23.4609 39.7747 21.7217 39.9996 19.9974 39.9996Z" fill="black"/>
<path d="M3.62445 31.4687C0.550801 27.0907 -0.618685 21.783 0.310906 16.5203C1.2405 11.2576 4.16421 6.66965 8.54229 3.611C17.5833 -2.71622 30.0728 -0.512189 36.4 8.52883L34.6758 9.7433C29.0083 1.64686 17.8232 -0.317276 9.74176 5.33524C5.82848 8.07903 3.21963 12.1722 2.38 16.8802C1.55536 21.5881 2.6049 26.341 5.34869 30.2543L3.62445 31.4687Z" fill="black"/>
</svg>
